<svg xmlns="http://www.w3.org/2000/svg" xmlns:xlink="http://www.w3.org/1999/xlink" width="1em" height="1em" preserveAspectRatio="xMidYMid meet" viewBox="0 0 15 15" style="-ms-transform: rotate(360deg); -webkit-transform: rotate(360deg); transform: rotate(360deg);"><g fill="currentColor"><circle cx="4.5" cy="2.5" r=".6"/><circle cx="4.5" cy="4.5" r=".6"/><circle cx="4.5" cy="6.499" r=".6"/><circle cx="4.5" cy="8.499" r=".6"/><circle cx="4.5" cy="10.498" r=".6"/><circle cx="4.5" cy="12.498" r=".6"/><circle cx="6.5" cy="2.5" r=".6"/><circle cx="6.5" cy="4.5" r=".6"/><circle cx="6.5" cy="6.499" r=".6"/><circle cx="6.5" cy="8.499" r=".6"/><circle cx="6.5" cy="10.498" r=".6"/><circle cx="6.5" cy="12.498" r=".6"/><circle cx="8.499" cy="2.5" r=".6"/><circle cx="8.499" cy="4.5" r=".6"/><circle cx="8.499" cy="6.499" r=".6"/><circle cx="8.499" cy="8.499" r=".6"/><circle cx="8.499" cy="10.498" r=".6"/><circle cx="8.499" cy="12.498" r=".6"/><circle cx="10.499" cy="2.5" r=".6"/><circle cx="10.499" cy="4.5" r=".6"/><circle cx="10.499" cy="6.499" r=".6"/><circle cx="10.499" cy="8.499" r=".6"/><circle cx="10.499" cy="10.498" r=".6"/><circle cx="10.499" cy="12.498" r=".6"/></g></svg>